<svg xmlns="http://www.w3.org/2000/svg" width="149.702" height="237.967" viewBox="0 0 149.702 237.967">
  <defs>
    <style>
      .cls-1 {
        fill: #00124b;
      }

      .cls-2 {
        fill: #e35300;
      }
    </style>
  </defs>
  <g id="Group_5" data-name="Group 5" transform="translate(-23.282 -12.133)">
    <g id="Group_4" data-name="Group 4">
      <path id="Path_16" data-name="Path 16" class="cls-1" d="M23.282,249.7l10.612-47.52h5.673L50.18,249.7H43.371l-2-10.212H32.092l-2,10.212ZM40.1,233.08l-3.337-17.219h-.133L33.294,233.08Z"/>
      <path id="Path_17" data-name="Path 17" class="cls-1" d="M75.541,215.861H68.734v-1.535a7.264,7.264,0,0,0-1.1-4.038,4.072,4.072,0,0,0-3.7-1.7,4.291,4.291,0,0,0-2.269.534,4.483,4.483,0,0,0-1.4,1.335,5.653,5.653,0,0,0-.734,1.969,12.9,12.9,0,0,0-.2,2.3,22.5,22.5,0,0,0,.1,2.336,4.433,4.433,0,0,0,.5,1.668A3.7,3.7,0,0,0,61.092,220a10.647,10.647,0,0,0,2.1,1.068l5.206,2.069a12.944,12.944,0,0,1,3.671,2.036,8.8,8.8,0,0,1,2.2,2.7,12.608,12.608,0,0,1,1,3.637,36,36,0,0,1,.267,4.638,24.49,24.49,0,0,1-.6,5.574A11.742,11.742,0,0,1,73,246.1a9.6,9.6,0,0,1-3.671,2.937,12.961,12.961,0,0,1-5.539,1.068,12.148,12.148,0,0,1-4.606-.867,10.931,10.931,0,0,1-3.67-2.4,11.668,11.668,0,0,1-2.436-3.57,10.839,10.839,0,0,1-.9-4.439v-2.536h6.807v2.136a5.554,5.554,0,0,0,1.1,3.37,4.289,4.289,0,0,0,3.7,1.5,5.973,5.973,0,0,0,2.7-.5,3.586,3.586,0,0,0,1.5-1.434,5.277,5.277,0,0,0,.635-2.237q.1-1.3.1-2.9a28.729,28.729,0,0,0-.134-3.07,5.288,5.288,0,0,0-.534-1.936,3.754,3.754,0,0,0-1.235-1.2,15.845,15.845,0,0,0-2.035-1l-4.872-2q-4.406-1.8-5.907-4.773a16.406,16.406,0,0,1-1.5-7.441,17.243,17.243,0,0,1,.733-5.072,11.545,11.545,0,0,1,2.2-4.138,10.1,10.1,0,0,1,3.571-2.77,11.923,11.923,0,0,1,5.172-1.035,11.3,11.3,0,0,1,4.639.935,11.953,11.953,0,0,1,3.637,2.47,10.313,10.313,0,0,1,3.07,7.341Z"/>
      <path id="Path_18" data-name="Path 18" class="cls-1" d="M80.613,249.7v-47.52H90.825a15.2,15.2,0,0,1,4.939.734,9.5,9.5,0,0,1,3.871,2.6,10.2,10.2,0,0,1,2.4,4.372,27.386,27.386,0,0,1,.667,6.774,33.68,33.68,0,0,1-.367,5.406,11.307,11.307,0,0,1-1.569,4.138,9.934,9.934,0,0,1-3.737,3.638,12.587,12.587,0,0,1-6.14,1.3H87.421V249.7Zm6.808-41.113v16.151h3.27a6.968,6.968,0,0,0,3.2-.6,3.782,3.782,0,0,0,1.668-1.668A6.1,6.1,0,0,0,96.2,220q.1-1.467.1-3.27,0-1.668-.067-3.17a6.874,6.874,0,0,0-.6-2.637,3.8,3.8,0,0,0-1.6-1.735,6.351,6.351,0,0,0-3.07-.6Z"/>
      <path id="Path_19" data-name="Path 19" class="cls-1" d="M102.238,249.7l10.612-47.52h5.673l10.613,47.52h-6.809l-2-10.212h-9.277l-2,10.212Zm16.82-16.619-3.338-17.219h-.133L112.25,233.08Z"/>
      <path id="Path_20" data-name="Path 20" class="cls-1" d="M133.273,249.7V208.586H125.4v-6.407h22.559v6.407h-7.875V249.7Z"/>
      <path id="Path_21" data-name="Path 21" class="cls-1" d="M150.959,249.7v-47.52h6.808v20.356h8.409V202.179h6.808V249.7h-6.808V228.542h-8.409V249.7Z"/>
    </g>
    <path id="Path_22" data-name="Path 22" class="cls-2" d="M132.916,85.826s-.922-2.133-.987-2.28L101.22,14.45a3.9,3.9,0,0,0-7.13,0l-30.709,69.1a5.867,5.867,0,0,0,2.978,7.745h0a5.868,5.868,0,0,0,7.745-2.979l23.55-52.987,21.881,49.232-14.682,5.564a17.128,17.128,0,0,0-10.495,11.5,17.711,17.711,0,0,0,2.647,14.711l6.629,9.642a5.5,5.5,0,0,1-.064,6.311L91.854,148.611a17.124,17.124,0,0,0-2.549,14.848L93.353,177.4a5.868,5.868,0,0,0,7.271,4h0a5.868,5.868,0,0,0,4-7.272l-4.048-13.942a5.489,5.489,0,0,1,.813-4.732L113.1,139.134a17.267,17.267,0,0,0,.2-19.8l-6.87-9.992a5.479,5.479,0,0,1-.362-5.62,5.667,5.667,0,0,1,3.09-2.681l20.676-7.831A5.5,5.5,0,0,0,132.916,85.826Z"/>
  </g>
</svg>
